  <svg
    width="339"
    height="53"
    viewBox="0 0 339 53"
    fill="none"
    xmlns="http://www.w3.org/2000/svg"
  >
    <path
      d="M47.5592 52.7136V38.9922H32.6165C28.553 38.9922 24.7888 41.1253 22.7076 44.608L17.8633 52.7136H47.5592Z"
      fill="#63D2F9"
    />
    <path d="M0 0V13.7214H39.3576L47.5582 0H0Z" fill="#4E5EE4" />
    <path
      d="M18.8318 21.4445L0.0390625 52.713H16.0501L38.5229 15.3047H29.6815C25.2344 15.3047 21.1144 17.6362 18.8318 21.4445Z"
      fill="#63B0F9"
    />
    <path
      d="M81.6277 39.544C73.5767 39.544 67.6523 33.6918 67.6523 25.8386C67.6523 18.0609 73.6147 12.1333 81.6657 12.1333C89.7167 12.1333 95.679 18.1365 95.679 25.8386C95.679 33.6163 89.6787 39.544 81.6277 39.544ZM81.6657 34.749C86.7545 34.749 90.4003 30.9734 90.4003 25.8386C90.4003 20.7794 86.7545 16.9283 81.6657 16.9283C76.5389 16.9283 72.8931 20.7794 72.8931 25.8386C72.8931 30.9734 76.5389 34.749 81.6657 34.749ZM101.07 47.737V19.1936H105.931V21.7233H106.197C106.729 20.8926 108.552 18.7028 112.197 18.7028C117.78 18.7028 121.616 22.8559 121.616 29.0479C121.616 35.2398 117.818 39.544 112.349 39.544C108.818 39.544 106.919 37.5807 106.273 36.4858H106.007V47.737H101.07ZM111.248 35.0888C114.438 35.0888 116.603 32.6347 116.603 29.1234C116.603 25.4988 114.438 23.158 111.21 23.158C107.944 23.158 105.893 25.7631 105.893 29.1234C105.893 32.8234 108.172 35.0888 111.248 35.0888ZM135.741 39.544C129.855 39.544 125.678 35.1643 125.678 29.2366C125.678 22.9692 129.893 18.7028 135.741 18.7028C142.16 18.7028 145.653 23.4223 145.653 29.0101V30.5581H130.463C130.615 33.5786 132.703 35.6174 135.893 35.6174C138.324 35.6174 140.185 34.4847 140.868 32.8612H145.463C144.476 36.9011 140.906 39.544 135.741 39.544ZM130.539 27.0846H140.944C140.716 24.4039 138.628 22.6294 135.741 22.6294C132.969 22.6294 130.843 24.5927 130.539 27.0846ZM150.969 39.0531V19.1936H155.678V21.61H155.944C156.741 20.1375 158.716 18.7028 161.564 18.7028C166.045 18.7028 168.78 21.8365 168.78 26.0652V39.0531H163.843V27.3489C163.843 24.9325 162.286 23.309 160.007 23.309C157.615 23.309 155.906 25.1968 155.906 27.6887V39.0531H150.969ZM173.677 39.0531V34.5602L187.501 17.2303V16.966H174.171V12.6241H193.805V17.0793L179.981 34.4092V34.7112H193.881V39.0531H173.677ZM207.247 39.544C201.361 39.544 197.183 35.1643 197.183 29.2366C197.183 22.9692 201.399 18.7028 207.247 18.7028C213.665 18.7028 217.159 23.4223 217.159 29.0101V30.5581H201.968C202.12 33.5786 204.209 35.6174 207.399 35.6174C209.83 35.6174 211.69 34.4847 212.374 32.8612H216.969C215.982 36.9011 212.412 39.544 207.247 39.544ZM202.044 27.0846H212.45C212.222 24.4039 210.133 22.6294 207.247 22.6294C204.475 22.6294 202.348 24.5927 202.044 27.0846ZM222.474 47.737V19.1936H227.335V21.7233H227.601C228.133 20.8926 229.956 18.7028 233.601 18.7028C239.184 18.7028 243.02 22.8559 243.02 29.0479C243.02 35.2398 239.222 39.544 233.753 39.544C230.222 39.544 228.323 37.5807 227.677 36.4858H227.411V47.737H222.474ZM232.652 35.0888C235.842 35.0888 238.007 32.6347 238.007 29.1234C238.007 25.4988 235.842 23.158 232.614 23.158C229.348 23.158 227.297 25.7631 227.297 29.1234C227.297 32.8234 229.576 35.0888 232.652 35.0888ZM248.335 47.737V19.1936H253.196V21.7233H253.462C253.993 20.8926 255.816 18.7028 259.462 18.7028C265.045 18.7028 268.88 22.8559 268.88 29.0479C268.88 35.2398 265.083 39.544 259.614 39.544C256.082 39.544 254.183 37.5807 253.538 36.4858H253.272V47.737H248.335ZM258.513 35.0888C261.703 35.0888 263.867 32.6347 263.867 29.1234C263.867 25.4988 261.703 23.158 258.475 23.158C255.209 23.158 253.158 25.7631 253.158 29.1234C253.158 32.8234 255.437 35.0888 258.513 35.0888ZM283.006 39.544C277.12 39.544 272.942 35.1643 272.942 29.2366C272.942 22.9692 277.158 18.7028 283.006 18.7028C289.424 18.7028 292.918 23.4223 292.918 29.0101V30.5581H277.727C277.879 33.5786 279.968 35.6174 283.158 35.6174C285.589 35.6174 287.449 34.4847 288.133 32.8612H292.728C291.741 36.9011 288.171 39.544 283.006 39.544ZM277.803 27.0846H288.209C287.981 24.4039 285.892 22.6294 283.006 22.6294C280.234 22.6294 278.107 24.5927 277.803 27.0846ZM303.094 39.0531C299.6 39.0531 297.626 36.9766 297.626 33.4653V10.7363H302.563V33.0122C302.563 34.1449 303.132 34.749 304.158 34.749H304.955V39.0531H303.094ZM312.169 16.5507C310.384 16.5507 309.131 15.4558 309.131 13.6813C309.131 11.9823 310.384 10.8496 312.169 10.8496C313.954 10.8496 315.207 11.9823 315.207 13.6813C315.207 15.4558 313.954 16.5507 312.169 16.5507ZM309.701 39.0531V19.1936H314.638V39.0531H309.701ZM320.637 39.0531V19.1936H325.346V21.61H325.612C326.409 20.1375 328.384 18.7028 331.232 18.7028C335.713 18.7028 338.448 21.8365 338.448 26.0652V39.0531H333.511V27.3489C333.511 24.9325 331.954 23.309 329.675 23.309C327.283 23.309 325.574 25.1968 325.574 27.6887V39.0531H320.637Z"
      fill="#282846"
    />
  </svg>