<svg width="1452" height="318" viewBox="0 0 1452 318" fill="none" xmlns="http://www.w3.org/2000/svg">
<rect width="303" height="251" rx="10" fill="white"/>
<path d="M158.655 140.393C154.826 146.693 147.273 145.587 144.866 140.614C138.518 147.58 133.34 140.385 133.34 140.385C134.502 149.679 142.352 156.859 151.871 156.859C161.543 156.859 169.496 149.44 170.451 139.926C170.451 139.926 161.938 144.924 158.655 140.393Z" fill="#00A5BF"/>
<path d="M112.766 103.859V173.354C112.766 174.815 113.987 175.995 115.502 175.995H188.505C190.016 175.995 191.239 174.815 191.239 173.354V103.859H112.766ZM151.894 161.472C139.673 161.472 129.767 151.468 129.767 139.126C129.767 126.786 139.672 116.779 151.894 116.779C164.112 116.779 174.019 126.785 174.019 139.126C174.019 151.468 164.112 161.472 151.894 161.472Z" fill="#00A5BF"/>
<path d="M188.505 75.0059H115.502C113.987 75.0059 112.766 76.2826 112.766 77.8591V98.7835H191.239V77.8591C191.239 76.2826 190.016 75.0059 188.505 75.0059ZM127.206 90.8581C125.039 90.8581 123.283 89.0827 123.283 86.8955C123.283 84.705 125.039 82.9328 127.206 82.9328C129.373 82.9328 131.13 84.705 131.13 86.8955C131.131 89.0827 129.375 90.8581 127.206 90.8581ZM144.329 90.8581C142.164 90.8581 140.406 89.0827 140.406 86.8955C140.406 84.705 142.164 82.9328 144.329 82.9328C146.495 82.9328 148.253 84.705 148.253 86.8955C148.254 89.0827 146.496 90.8581 144.329 90.8581Z" fill="#00A5BF"/>
<rect x="766" width="303" height="251" rx="10" fill="white"/>
<path d="M900.976 143.278C901.378 143.55 901.827 143.808 902.316 144.025C903.513 144.557 904.975 144.854 906.603 144.493C907.927 144.2 909.291 143.489 910.665 142.232C913.766 146.599 920.704 147.29 924.778 141.983C926.868 143.721 929.831 143.42 932.044 142.824C933.23 142.505 934.323 142.072 935.17 141.69C933.487 149.791 926.376 155.859 917.871 155.859C909.93 155.859 903.206 150.572 900.976 143.278Z" fill="#00A5BF" stroke="#00A5BF" stroke-width="2"/>
<path d="M879.766 173.354V104.859H956.239V173.354C956.239 174.23 955.496 174.995 954.505 174.995H881.502C880.507 174.995 879.766 174.23 879.766 173.354ZM894.767 139.126C894.767 152.011 905.112 162.472 917.894 162.472C930.674 162.472 941.019 152.011 941.019 139.126C941.019 126.242 930.674 115.779 917.894 115.779C905.11 115.779 894.767 126.244 894.767 139.126Z" fill="#00A5BF" stroke="#00A5BF" stroke-width="2"/>
<path d="M881.502 76.0059H954.505C955.424 76.0059 956.239 76.7943 956.239 77.8591V97.7835H879.766V77.8591C879.766 76.7943 880.579 76.0059 881.502 76.0059ZM888.283 86.8955C888.283 89.6254 890.477 91.8581 893.206 91.8581L897.13 86.8955H898.13C898.13 86.8952 898.13 86.895 898.13 86.8947C898.129 84.1615 895.935 81.9328 893.206 81.9328C890.478 81.9328 888.283 84.1619 888.283 86.8955ZM905.406 86.8955C905.406 89.6256 907.602 91.8581 910.329 91.8581L914.253 86.8955H915.253C915.253 86.8952 915.253 86.895 915.253 86.8947C915.252 84.1612 913.056 81.9328 910.329 81.9328C907.602 81.9328 905.406 84.1616 905.406 86.8955Z" fill="#00A5BF" stroke="#00A5BF" stroke-width="2"/>
<rect x="1149" width="303" height="251" rx="10" fill="#00A5BF"/>
<path d="M1307.66 140.393C1303.83 146.693 1296.27 145.587 1293.87 140.614C1287.52 147.58 1282.34 140.385 1282.34 140.385C1283.5 149.679 1291.35 156.859 1300.87 156.859C1310.54 156.859 1318.5 149.44 1319.45 139.926C1319.45 139.926 1310.94 144.924 1307.66 140.393Z" fill="white"/>
<path d="M1261.77 103.859V173.354C1261.77 174.815 1262.99 175.995 1264.5 175.995H1337.5C1339.02 175.995 1340.24 174.815 1340.24 173.354V103.859H1261.77ZM1300.89 161.472C1288.67 161.472 1278.77 151.468 1278.77 139.126C1278.77 126.786 1288.67 116.779 1300.89 116.779C1313.11 116.779 1323.02 126.785 1323.02 139.126C1323.02 151.468 1313.11 161.472 1300.89 161.472Z" fill="white"/>
<path d="M1337.5 75.0059H1264.5C1262.99 75.0059 1261.77 76.2826 1261.77 77.8591V98.7835H1340.24V77.8591C1340.24 76.2826 1339.02 75.0059 1337.5 75.0059ZM1276.21 90.8581C1274.04 90.8581 1272.28 89.0827 1272.28 86.8955C1272.28 84.705 1274.04 82.9328 1276.21 82.9328C1278.37 82.9328 1280.13 84.705 1280.13 86.8955C1280.13 89.0827 1278.37 90.8581 1276.21 90.8581ZM1293.33 90.8581C1291.16 90.8581 1289.41 89.0827 1289.41 86.8955C1289.41 84.705 1291.16 82.9328 1293.33 82.9328C1295.49 82.9328 1297.25 84.705 1297.25 86.8955C1297.25 89.0827 1295.5 90.8581 1293.33 90.8581Z" fill="white"/>
<rect x="383" width="303" height="251" rx="10" fill="#00A5BF"/>
<path d="M541.655 140.393C537.826 146.693 530.273 145.587 527.866 140.614C521.518 147.58 516.34 140.385 516.34 140.385C517.502 149.679 525.352 156.859 534.871 156.859C544.543 156.859 552.496 149.44 553.451 139.926C553.451 139.926 544.938 144.924 541.655 140.393Z" fill="white"/>
<path d="M495.766 103.859V173.354C495.766 174.815 496.987 175.995 498.502 175.995H571.505C573.016 175.995 574.239 174.815 574.239 173.354V103.859H495.766ZM534.894 161.472C522.673 161.472 512.767 151.468 512.767 139.126C512.767 126.786 522.672 116.779 534.894 116.779C547.112 116.779 557.019 126.785 557.019 139.126C557.019 151.468 547.112 161.472 534.894 161.472Z" fill="white"/>
<path d="M571.505 75.0059H498.502C496.987 75.0059 495.766 76.2826 495.766 77.8591V98.7835H574.239V77.8591C574.239 76.2826 573.016 75.0059 571.505 75.0059ZM510.206 90.8581C508.039 90.8581 506.283 89.0827 506.283 86.8955C506.283 84.705 508.039 82.9328 510.206 82.9328C512.373 82.9328 514.13 84.705 514.13 86.8955C514.131 89.0827 512.375 90.8581 510.206 90.8581ZM527.329 90.8581C525.164 90.8581 523.406 89.0827 523.406 86.8955C523.406 84.705 525.164 82.9328 527.329 82.9328C529.495 82.9328 531.253 84.705 531.253 86.8955C531.254 89.0827 529.496 90.8581 527.329 90.8581Z" fill="white"/>
<path d="M7.19318 311L0.625 287.727H5.15909L9.35227 304.83H9.56818L14.0455 287.727H18.1705L22.6591 304.841H22.8636L27.0568 287.727H31.5909L25.0227 311H20.8636L16.2045 294.67H16.0227L11.3523 311H7.19318ZM37.5739 311.352C36.4678 311.352 35.4716 311.155 34.5852 310.761C33.7064 310.36 33.0095 309.769 32.4943 308.989C31.9867 308.208 31.733 307.246 31.733 306.102C31.733 305.117 31.9148 304.303 32.2784 303.659C32.642 303.015 33.1383 302.5 33.767 302.114C34.3958 301.727 35.1042 301.436 35.892 301.239C36.6875 301.034 37.5095 300.886 38.358 300.795C39.3807 300.689 40.2102 300.595 40.8466 300.511C41.483 300.42 41.9451 300.284 42.233 300.102C42.5284 299.913 42.6761 299.621 42.6761 299.227V299.159C42.6761 298.303 42.4223 297.64 41.9148 297.17C41.4072 296.701 40.6761 296.466 39.7216 296.466C38.714 296.466 37.9148 296.686 37.3239 297.125C36.7405 297.564 36.3466 298.083 36.142 298.682L32.3011 298.136C32.6042 297.076 33.1042 296.189 33.8011 295.477C34.4981 294.758 35.3504 294.22 36.358 293.864C37.3655 293.5 38.4792 293.318 39.6989 293.318C40.5398 293.318 41.3769 293.417 42.2102 293.614C43.0436 293.811 43.8049 294.136 44.4943 294.591C45.1837 295.038 45.7367 295.648 46.1534 296.42C46.5777 297.193 46.7898 298.159 46.7898 299.318V311H42.8352V308.602H42.6989C42.4489 309.087 42.0966 309.542 41.642 309.966C41.1951 310.383 40.6307 310.72 39.9489 310.977C39.2746 311.227 38.483 311.352 37.5739 311.352ZM38.642 308.33C39.4678 308.33 40.1837 308.167 40.7898 307.841C41.3958 307.508 41.8617 307.068 42.1875 306.523C42.5208 305.977 42.6875 305.383 42.6875 304.739V302.682C42.5587 302.788 42.339 302.886 42.0284 302.977C41.7254 303.068 41.3845 303.148 41.0057 303.216C40.6269 303.284 40.2519 303.345 39.8807 303.398C39.5095 303.451 39.1875 303.496 38.9148 303.534C38.3011 303.617 37.7519 303.754 37.267 303.943C36.7822 304.133 36.3996 304.398 36.1193 304.739C35.839 305.072 35.6989 305.504 35.6989 306.034C35.6989 306.792 35.9754 307.364 36.5284 307.75C37.0814 308.136 37.786 308.33 38.642 308.33ZM64.7216 298.159L60.9716 298.568C60.8655 298.189 60.6799 297.833 60.4148 297.5C60.1572 297.167 59.8087 296.898 59.3693 296.693C58.9299 296.489 58.392 296.386 57.7557 296.386C56.8996 296.386 56.1799 296.572 55.5966 296.943C55.0208 297.314 54.7367 297.795 54.7443 298.386C54.7367 298.894 54.9223 299.307 55.3011 299.625C55.6875 299.943 56.3239 300.205 57.2102 300.409L60.1875 301.045C61.839 301.402 63.0663 301.966 63.8693 302.739C64.6799 303.511 65.089 304.523 65.0966 305.773C65.089 306.871 64.767 307.841 64.1307 308.682C63.5019 309.515 62.6269 310.167 61.5057 310.636C60.3845 311.106 59.0966 311.341 57.642 311.341C55.5057 311.341 53.786 310.894 52.483 310C51.1799 309.098 50.4034 307.845 50.1534 306.239L54.1648 305.852C54.3466 306.64 54.733 307.235 55.3239 307.636C55.9148 308.038 56.6837 308.239 57.6307 308.239C58.608 308.239 59.392 308.038 59.983 307.636C60.5814 307.235 60.8807 306.739 60.8807 306.148C60.8807 305.648 60.6875 305.235 60.3011 304.909C59.9223 304.583 59.3314 304.333 58.5284 304.159L55.5511 303.534C53.8769 303.186 52.6383 302.598 51.8352 301.773C51.0322 300.939 50.6345 299.886 50.642 298.614C50.6345 297.538 50.9261 296.606 51.517 295.818C52.1155 295.023 52.9451 294.409 54.0057 293.977C55.0739 293.538 56.3049 293.318 57.6989 293.318C59.7443 293.318 61.3542 293.754 62.5284 294.625C63.7102 295.496 64.4413 296.674 64.7216 298.159ZM72.6023 300.773V311H68.4886V287.727H72.5114V296.511H72.7159C73.125 295.527 73.7576 294.75 74.6136 294.182C75.4773 293.606 76.5758 293.318 77.9091 293.318C79.1212 293.318 80.178 293.572 81.0795 294.08C81.9811 294.587 82.678 295.33 83.1705 296.307C83.6705 297.284 83.9205 298.477 83.9205 299.886V311H79.8068V300.523C79.8068 299.348 79.5038 298.436 78.8977 297.784C78.2992 297.125 77.4583 296.795 76.375 296.795C75.6477 296.795 74.9962 296.955 74.4205 297.273C73.8523 297.583 73.4053 298.034 73.0795 298.625C72.7614 299.216 72.6023 299.932 72.6023 300.773Z" fill="white"/>
<path d="M390.193 311L383.625 287.727H388.159L392.352 304.83H392.568L397.045 287.727H401.17L405.659 304.841H405.864L410.057 287.727H414.591L408.023 311H403.864L399.205 294.67H399.023L394.352 311H390.193ZM420.574 311.352C419.468 311.352 418.472 311.155 417.585 310.761C416.706 310.36 416.009 309.769 415.494 308.989C414.987 308.208 414.733 307.246 414.733 306.102C414.733 305.117 414.915 304.303 415.278 303.659C415.642 303.015 416.138 302.5 416.767 302.114C417.396 301.727 418.104 301.436 418.892 301.239C419.688 301.034 420.509 300.886 421.358 300.795C422.381 300.689 423.21 300.595 423.847 300.511C424.483 300.42 424.945 300.284 425.233 300.102C425.528 299.913 425.676 299.621 425.676 299.227V299.159C425.676 298.303 425.422 297.64 424.915 297.17C424.407 296.701 423.676 296.466 422.722 296.466C421.714 296.466 420.915 296.686 420.324 297.125C419.741 297.564 419.347 298.083 419.142 298.682L415.301 298.136C415.604 297.076 416.104 296.189 416.801 295.477C417.498 294.758 418.35 294.22 419.358 293.864C420.366 293.5 421.479 293.318 422.699 293.318C423.54 293.318 424.377 293.417 425.21 293.614C426.044 293.811 426.805 294.136 427.494 294.591C428.184 295.038 428.737 295.648 429.153 296.42C429.578 297.193 429.79 298.159 429.79 299.318V311H425.835V308.602H425.699C425.449 309.087 425.097 309.542 424.642 309.966C424.195 310.383 423.631 310.72 422.949 310.977C422.275 311.227 421.483 311.352 420.574 311.352ZM421.642 308.33C422.468 308.33 423.184 308.167 423.79 307.841C424.396 307.508 424.862 307.068 425.188 306.523C425.521 305.977 425.688 305.383 425.688 304.739V302.682C425.559 302.788 425.339 302.886 425.028 302.977C424.725 303.068 424.384 303.148 424.006 303.216C423.627 303.284 423.252 303.345 422.881 303.398C422.509 303.451 422.188 303.496 421.915 303.534C421.301 303.617 420.752 303.754 420.267 303.943C419.782 304.133 419.4 304.398 419.119 304.739C418.839 305.072 418.699 305.504 418.699 306.034C418.699 306.792 418.975 307.364 419.528 307.75C420.081 308.136 420.786 308.33 421.642 308.33ZM447.722 298.159L443.972 298.568C443.866 298.189 443.68 297.833 443.415 297.5C443.157 297.167 442.809 296.898 442.369 296.693C441.93 296.489 441.392 296.386 440.756 296.386C439.9 296.386 439.18 296.572 438.597 296.943C438.021 297.314 437.737 297.795 437.744 298.386C437.737 298.894 437.922 299.307 438.301 299.625C438.688 299.943 439.324 300.205 440.21 300.409L443.188 301.045C444.839 301.402 446.066 301.966 446.869 302.739C447.68 303.511 448.089 304.523 448.097 305.773C448.089 306.871 447.767 307.841 447.131 308.682C446.502 309.515 445.627 310.167 444.506 310.636C443.384 311.106 442.097 311.341 440.642 311.341C438.506 311.341 436.786 310.894 435.483 310C434.18 309.098 433.403 307.845 433.153 306.239L437.165 305.852C437.347 306.64 437.733 307.235 438.324 307.636C438.915 308.038 439.684 308.239 440.631 308.239C441.608 308.239 442.392 308.038 442.983 307.636C443.581 307.235 443.881 306.739 443.881 306.148C443.881 305.648 443.688 305.235 443.301 304.909C442.922 304.583 442.331 304.333 441.528 304.159L438.551 303.534C436.877 303.186 435.638 302.598 434.835 301.773C434.032 300.939 433.634 299.886 433.642 298.614C433.634 297.538 433.926 296.606 434.517 295.818C435.116 295.023 435.945 294.409 437.006 293.977C438.074 293.538 439.305 293.318 440.699 293.318C442.744 293.318 444.354 293.754 445.528 294.625C446.71 295.496 447.441 296.674 447.722 298.159ZM455.602 300.773V311H451.489V287.727H455.511V296.511H455.716C456.125 295.527 456.758 294.75 457.614 294.182C458.477 293.606 459.576 293.318 460.909 293.318C462.121 293.318 463.178 293.572 464.08 294.08C464.981 294.587 465.678 295.33 466.17 296.307C466.67 297.284 466.92 298.477 466.92 299.886V311H462.807V300.523C462.807 299.348 462.504 298.436 461.898 297.784C461.299 297.125 460.458 296.795 459.375 296.795C458.648 296.795 457.996 296.955 457.42 297.273C456.852 297.583 456.405 298.034 456.08 298.625C455.761 299.216 455.602 299.932 455.602 300.773ZM486.006 311.341C484.415 311.341 483.047 311.053 481.903 310.477C480.759 309.902 479.877 309.125 479.256 308.148C478.642 307.163 478.335 306.053 478.335 304.818C478.335 303.886 478.525 303.061 478.903 302.341C479.29 301.621 479.82 300.955 480.494 300.341C481.176 299.727 481.964 299.117 482.858 298.511L486.983 295.705C487.589 295.311 488.047 294.894 488.358 294.455C488.676 294.015 488.835 293.5 488.835 292.909C488.835 292.409 488.623 291.936 488.199 291.489C487.782 291.042 487.206 290.818 486.472 290.818C485.979 290.818 485.544 290.936 485.165 291.17C484.794 291.398 484.502 291.697 484.29 292.068C484.085 292.439 483.983 292.833 483.983 293.25C483.983 293.758 484.123 294.273 484.403 294.795C484.691 295.318 485.063 295.86 485.517 296.42C485.979 296.981 486.472 297.576 486.994 298.205L497.915 311H493.46L484.392 300.614C483.718 299.826 483.066 299.049 482.438 298.284C481.816 297.519 481.305 296.723 480.903 295.898C480.509 295.064 480.312 294.163 480.312 293.193C480.312 292.095 480.566 291.114 481.074 290.25C481.581 289.379 482.29 288.693 483.199 288.193C484.116 287.693 485.188 287.443 486.415 287.443C487.642 287.443 488.695 287.686 489.574 288.17C490.453 288.655 491.131 289.299 491.608 290.102C492.085 290.905 492.324 291.78 492.324 292.727C492.324 293.826 492.051 294.811 491.506 295.682C490.96 296.545 490.203 297.33 489.233 298.034L484.528 301.477C483.756 302.038 483.203 302.606 482.869 303.182C482.536 303.75 482.369 304.235 482.369 304.636C482.369 305.25 482.525 305.807 482.835 306.307C483.146 306.807 483.581 307.208 484.142 307.511C484.71 307.807 485.373 307.955 486.131 307.955C486.964 307.955 487.786 307.769 488.597 307.398C489.407 307.019 490.146 306.481 490.812 305.784C491.479 305.087 492.009 304.254 492.403 303.284C492.797 302.307 492.994 301.223 492.994 300.034H496.528C496.528 301.504 496.366 302.784 496.04 303.875C495.714 304.958 495.294 305.875 494.778 306.625C494.263 307.367 493.718 307.962 493.142 308.409C492.96 308.538 492.786 308.667 492.619 308.795C492.453 308.924 492.278 309.053 492.097 309.182C491.278 309.924 490.32 310.47 489.222 310.818C488.131 311.167 487.059 311.341 486.006 311.341ZM512.605 287.727V311H508.389V287.727H512.605ZM516.989 311V293.545H520.977V296.455H521.159C521.477 295.447 522.023 294.67 522.795 294.125C523.576 293.572 524.466 293.295 525.466 293.295C525.693 293.295 525.947 293.307 526.227 293.33C526.515 293.345 526.754 293.371 526.943 293.409V297.193C526.769 297.133 526.492 297.08 526.114 297.034C525.742 296.981 525.383 296.955 525.034 296.955C524.284 296.955 523.61 297.117 523.011 297.443C522.42 297.761 521.955 298.205 521.614 298.773C521.273 299.341 521.102 299.996 521.102 300.739V311H516.989ZM536.571 311.341C534.866 311.341 533.389 310.966 532.139 310.216C530.889 309.466 529.92 308.417 529.23 307.068C528.548 305.72 528.207 304.144 528.207 302.341C528.207 300.538 528.548 298.958 529.23 297.602C529.92 296.246 530.889 295.193 532.139 294.443C533.389 293.693 534.866 293.318 536.571 293.318C538.276 293.318 539.753 293.693 541.003 294.443C542.253 295.193 543.219 296.246 543.901 297.602C544.59 298.958 544.935 300.538 544.935 302.341C544.935 304.144 544.59 305.72 543.901 307.068C543.219 308.417 542.253 309.466 541.003 310.216C539.753 310.966 538.276 311.341 536.571 311.341ZM536.594 308.045C537.518 308.045 538.291 307.792 538.912 307.284C539.533 306.769 539.995 306.08 540.298 305.216C540.609 304.352 540.764 303.39 540.764 302.33C540.764 301.261 540.609 300.295 540.298 299.432C539.995 298.561 539.533 297.867 538.912 297.352C538.291 296.837 537.518 296.58 536.594 296.58C535.647 296.58 534.859 296.837 534.23 297.352C533.609 297.867 533.143 298.561 532.832 299.432C532.529 300.295 532.378 301.261 532.378 302.33C532.378 303.39 532.529 304.352 532.832 305.216C533.143 306.08 533.609 306.769 534.23 307.284C534.859 307.792 535.647 308.045 536.594 308.045ZM552.54 300.773V311H548.426V293.545H552.358V296.511H552.562C552.964 295.534 553.604 294.758 554.483 294.182C555.369 293.606 556.464 293.318 557.767 293.318C558.972 293.318 560.021 293.576 560.915 294.091C561.816 294.606 562.513 295.352 563.006 296.33C563.506 297.307 563.752 298.492 563.744 299.886V311H559.631V300.523C559.631 299.356 559.328 298.443 558.722 297.784C558.123 297.125 557.294 296.795 556.233 296.795C555.513 296.795 554.873 296.955 554.312 297.273C553.759 297.583 553.324 298.034 553.006 298.625C552.695 299.216 552.54 299.932 552.54 300.773Z" fill="white"/>
<path d="M765.511 287.727V311H761.295V287.727H765.511ZM769.895 311V293.545H773.884V296.455H774.065C774.384 295.447 774.929 294.67 775.702 294.125C776.482 293.572 777.372 293.295 778.372 293.295C778.599 293.295 778.853 293.307 779.134 293.33C779.421 293.345 779.66 293.371 779.849 293.409V297.193C779.675 297.133 779.399 297.08 779.02 297.034C778.649 296.981 778.289 296.955 777.94 296.955C777.19 296.955 776.516 297.117 775.918 297.443C775.327 297.761 774.861 298.205 774.52 298.773C774.179 299.341 774.009 299.996 774.009 300.739V311H769.895ZM789.477 311.341C787.773 311.341 786.295 310.966 785.045 310.216C783.795 309.466 782.826 308.417 782.136 307.068C781.455 305.72 781.114 304.144 781.114 302.341C781.114 300.538 781.455 298.958 782.136 297.602C782.826 296.246 783.795 295.193 785.045 294.443C786.295 293.693 787.773 293.318 789.477 293.318C791.182 293.318 792.659 293.693 793.909 294.443C795.159 295.193 796.125 296.246 796.807 297.602C797.496 298.958 797.841 300.538 797.841 302.341C797.841 304.144 797.496 305.72 796.807 307.068C796.125 308.417 795.159 309.466 793.909 310.216C792.659 310.966 791.182 311.341 789.477 311.341ZM789.5 308.045C790.424 308.045 791.197 307.792 791.818 307.284C792.439 306.769 792.902 306.08 793.205 305.216C793.515 304.352 793.67 303.39 793.67 302.33C793.67 301.261 793.515 300.295 793.205 299.432C792.902 298.561 792.439 297.867 791.818 297.352C791.197 296.837 790.424 296.58 789.5 296.58C788.553 296.58 787.765 296.837 787.136 297.352C786.515 297.867 786.049 298.561 785.739 299.432C785.436 300.295 785.284 301.261 785.284 302.33C785.284 303.39 785.436 304.352 785.739 305.216C786.049 306.08 786.515 306.769 787.136 307.284C787.765 307.792 788.553 308.045 789.5 308.045ZM805.446 300.773V311H801.332V293.545H805.264V296.511H805.469C805.87 295.534 806.51 294.758 807.389 294.182C808.276 293.606 809.37 293.318 810.673 293.318C811.878 293.318 812.927 293.576 813.821 294.091C814.723 294.606 815.42 295.352 815.912 296.33C816.412 297.307 816.658 298.492 816.651 299.886V311H812.537V300.523C812.537 299.356 812.234 298.443 811.628 297.784C811.029 297.125 810.2 296.795 809.139 296.795C808.42 296.795 807.779 296.955 807.219 297.273C806.666 297.583 806.23 298.034 805.912 298.625C805.601 299.216 805.446 299.932 805.446 300.773ZM820.832 311V293.545H824.946V311H820.832ZM822.901 291.068C822.249 291.068 821.688 290.852 821.219 290.42C820.749 289.981 820.514 289.455 820.514 288.841C820.514 288.22 820.749 287.693 821.219 287.261C821.688 286.822 822.249 286.602 822.901 286.602C823.56 286.602 824.12 286.822 824.582 287.261C825.052 287.693 825.287 288.22 825.287 288.841C825.287 289.455 825.052 289.981 824.582 290.42C824.12 290.852 823.56 291.068 822.901 291.068ZM833.29 300.773V311H829.176V293.545H833.108V296.511H833.312C833.714 295.534 834.354 294.758 835.233 294.182C836.119 293.606 837.214 293.318 838.517 293.318C839.722 293.318 840.771 293.576 841.665 294.091C842.566 294.606 843.263 295.352 843.756 296.33C844.256 297.307 844.502 298.492 844.494 299.886V311H840.381V300.523C840.381 299.356 840.078 298.443 839.472 297.784C838.873 297.125 838.044 296.795 836.983 296.795C836.263 296.795 835.623 296.955 835.062 297.273C834.509 297.583 834.074 298.034 833.756 298.625C833.445 299.216 833.29 299.932 833.29 300.773ZM856.267 317.909C854.79 317.909 853.521 317.708 852.46 317.307C851.4 316.913 850.547 316.383 849.903 315.716C849.259 315.049 848.812 314.311 848.562 313.5L852.267 312.602C852.434 312.943 852.676 313.28 852.994 313.614C853.313 313.955 853.741 314.235 854.278 314.455C854.824 314.682 855.509 314.795 856.335 314.795C857.502 314.795 858.468 314.511 859.233 313.943C859.998 313.383 860.381 312.458 860.381 311.17V307.864H860.176C859.964 308.288 859.653 308.723 859.244 309.17C858.843 309.617 858.309 309.992 857.642 310.295C856.983 310.598 856.153 310.75 855.153 310.75C853.812 310.75 852.597 310.436 851.506 309.807C850.422 309.17 849.559 308.223 848.915 306.966C848.278 305.701 847.96 304.117 847.96 302.216C847.96 300.299 848.278 298.682 848.915 297.364C849.559 296.038 850.426 295.034 851.517 294.352C852.608 293.663 853.824 293.318 855.165 293.318C856.188 293.318 857.028 293.492 857.688 293.841C858.354 294.182 858.884 294.595 859.278 295.08C859.672 295.557 859.972 296.008 860.176 296.432H860.403V293.545H864.46V311.284C864.46 312.777 864.104 314.011 863.392 314.989C862.68 315.966 861.706 316.697 860.472 317.182C859.237 317.667 857.835 317.909 856.267 317.909ZM856.301 307.523C857.172 307.523 857.915 307.311 858.528 306.886C859.142 306.462 859.608 305.852 859.926 305.057C860.244 304.261 860.403 303.307 860.403 302.193C860.403 301.095 860.244 300.133 859.926 299.307C859.616 298.481 859.153 297.841 858.54 297.386C857.934 296.924 857.188 296.693 856.301 296.693C855.384 296.693 854.619 296.932 854.006 297.409C853.392 297.886 852.93 298.542 852.619 299.375C852.309 300.201 852.153 301.14 852.153 302.193C852.153 303.261 852.309 304.197 852.619 305C852.938 305.795 853.403 306.417 854.017 306.864C854.638 307.303 855.4 307.523 856.301 307.523Z" fill="white"/>
<path d="M1159.18 311H1151.3V287.727H1159.34C1161.65 287.727 1163.64 288.193 1165.3 289.125C1166.96 290.049 1168.24 291.379 1169.14 293.114C1170.03 294.848 1170.48 296.924 1170.48 299.341C1170.48 301.765 1170.03 303.848 1169.12 305.591C1168.23 307.333 1166.94 308.67 1165.25 309.602C1163.57 310.534 1161.55 311 1159.18 311ZM1155.51 307.352H1158.98C1160.6 307.352 1161.95 307.057 1163.03 306.466C1164.12 305.867 1164.93 304.977 1165.48 303.795C1166.02 302.606 1166.3 301.121 1166.3 299.341C1166.3 297.561 1166.02 296.083 1165.48 294.909C1164.93 293.727 1164.13 292.845 1163.06 292.261C1162 291.67 1160.68 291.375 1159.1 291.375H1155.51V307.352ZM1174.3 311V293.545H1178.29V296.455H1178.47C1178.79 295.447 1179.34 294.67 1180.11 294.125C1180.89 293.572 1181.78 293.295 1182.78 293.295C1183.01 293.295 1183.26 293.307 1183.54 293.33C1183.83 293.345 1184.07 293.371 1184.26 293.409V297.193C1184.08 297.133 1183.8 297.08 1183.43 297.034C1183.05 296.981 1182.7 296.955 1182.35 296.955C1181.6 296.955 1180.92 297.117 1180.32 297.443C1179.73 297.761 1179.27 298.205 1178.93 298.773C1178.59 299.341 1178.41 299.996 1178.41 300.739V311H1174.3ZM1190.08 317.545C1189.52 317.545 1189 317.5 1188.52 317.409C1188.05 317.326 1187.68 317.227 1187.39 317.114L1188.35 313.909C1188.95 314.083 1189.48 314.167 1189.95 314.159C1190.42 314.152 1190.83 314.004 1191.19 313.716C1191.55 313.436 1191.86 312.966 1192.11 312.307L1192.46 311.364L1186.13 293.545H1190.5L1194.52 306.727H1194.7L1198.74 293.545H1203.11L1196.12 313.114C1195.8 314.038 1195.36 314.83 1194.83 315.489C1194.29 316.155 1193.63 316.663 1192.85 317.011C1192.08 317.367 1191.15 317.545 1190.08 317.545ZM1234 295.58H1229.75C1229.63 294.883 1229.4 294.265 1229.08 293.727C1228.75 293.182 1228.35 292.72 1227.86 292.341C1227.38 291.962 1226.82 291.678 1226.2 291.489C1225.59 291.292 1224.93 291.193 1224.21 291.193C1222.95 291.193 1221.83 291.511 1220.85 292.148C1219.87 292.777 1219.11 293.701 1218.55 294.92C1218 296.133 1217.72 297.614 1217.72 299.364C1217.72 301.144 1218 302.644 1218.55 303.864C1219.11 305.076 1219.88 305.992 1220.85 306.614C1221.83 307.227 1222.94 307.534 1224.2 307.534C1224.9 307.534 1225.55 307.443 1226.16 307.261C1226.77 307.072 1227.32 306.795 1227.8 306.432C1228.3 306.068 1228.71 305.621 1229.04 305.091C1229.38 304.561 1229.62 303.955 1229.75 303.273L1234 303.295C1233.84 304.402 1233.49 305.439 1232.96 306.409C1232.44 307.379 1231.75 308.235 1230.91 308.977C1230.06 309.712 1229.07 310.288 1227.93 310.705C1226.79 311.114 1225.53 311.318 1224.14 311.318C1222.1 311.318 1220.27 310.845 1218.67 309.898C1217.06 308.951 1215.8 307.583 1214.87 305.795C1213.95 304.008 1213.49 301.864 1213.49 299.364C1213.49 296.856 1213.95 294.712 1214.88 292.932C1215.82 291.144 1217.08 289.777 1218.69 288.83C1220.3 287.883 1222.11 287.409 1224.14 287.409C1225.44 287.409 1226.64 287.591 1227.76 287.955C1228.87 288.318 1229.86 288.852 1230.74 289.557C1231.61 290.254 1232.32 291.11 1232.88 292.125C1233.45 293.133 1233.82 294.284 1234 295.58ZM1241.79 287.727V311H1237.68V287.727H1241.79ZM1253.75 311.341C1252 311.341 1250.49 310.977 1249.21 310.25C1247.95 309.515 1246.97 308.477 1246.29 307.136C1245.61 305.788 1245.27 304.201 1245.27 302.375C1245.27 300.58 1245.61 299.004 1246.29 297.648C1246.98 296.284 1247.94 295.223 1249.18 294.466C1250.41 293.701 1251.86 293.318 1253.53 293.318C1254.61 293.318 1255.62 293.492 1256.58 293.841C1257.54 294.182 1258.39 294.712 1259.12 295.432C1259.86 296.152 1260.45 297.068 1260.87 298.182C1261.3 299.288 1261.51 300.606 1261.51 302.136V303.398H1247.2V300.625H1257.57C1257.56 299.837 1257.39 299.136 1257.05 298.523C1256.72 297.902 1256.25 297.413 1255.66 297.057C1255.07 296.701 1254.38 296.523 1253.59 296.523C1252.75 296.523 1252.01 296.727 1251.37 297.136C1250.74 297.538 1250.24 298.068 1249.88 298.727C1249.54 299.379 1249.36 300.095 1249.35 300.875V303.295C1249.35 304.311 1249.54 305.182 1249.91 305.909C1250.28 306.629 1250.8 307.182 1251.46 307.568C1252.13 307.947 1252.91 308.136 1253.8 308.136C1254.4 308.136 1254.94 308.053 1255.43 307.886C1255.91 307.712 1256.33 307.458 1256.69 307.125C1257.05 306.792 1257.32 306.379 1257.5 305.886L1261.34 306.318C1261.1 307.333 1260.63 308.22 1259.95 308.977C1259.28 309.727 1258.41 310.311 1257.36 310.727C1256.31 311.136 1255.1 311.341 1253.75 311.341ZM1270.01 311.352C1268.91 311.352 1267.91 311.155 1267.02 310.761C1266.14 310.36 1265.45 309.769 1264.93 308.989C1264.42 308.208 1264.17 307.246 1264.17 306.102C1264.17 305.117 1264.35 304.303 1264.72 303.659C1265.08 303.015 1265.58 302.5 1266.2 302.114C1266.83 301.727 1267.54 301.436 1268.33 301.239C1269.13 301.034 1269.95 300.886 1270.8 300.795C1271.82 300.689 1272.65 300.595 1273.28 300.511C1273.92 300.42 1274.38 300.284 1274.67 300.102C1274.97 299.913 1275.11 299.621 1275.11 299.227V299.159C1275.11 298.303 1274.86 297.64 1274.35 297.17C1273.84 296.701 1273.11 296.466 1272.16 296.466C1271.15 296.466 1270.35 296.686 1269.76 297.125C1269.18 297.564 1268.78 298.083 1268.58 298.682L1264.74 298.136C1265.04 297.076 1265.54 296.189 1266.24 295.477C1266.94 294.758 1267.79 294.22 1268.8 293.864C1269.8 293.5 1270.92 293.318 1272.14 293.318C1272.98 293.318 1273.81 293.417 1274.65 293.614C1275.48 293.811 1276.24 294.136 1276.93 294.591C1277.62 295.038 1278.17 295.648 1278.59 296.42C1279.02 297.193 1279.23 298.159 1279.23 299.318V311H1275.27V308.602H1275.14C1274.89 309.087 1274.53 309.542 1274.08 309.966C1273.63 310.383 1273.07 310.72 1272.39 310.977C1271.71 311.227 1270.92 311.352 1270.01 311.352ZM1271.08 308.33C1271.91 308.33 1272.62 308.167 1273.23 307.841C1273.83 307.508 1274.3 307.068 1274.62 306.523C1274.96 305.977 1275.12 305.383 1275.12 304.739V302.682C1275 302.788 1274.78 302.886 1274.47 302.977C1274.16 303.068 1273.82 303.148 1273.44 303.216C1273.06 303.284 1272.69 303.345 1272.32 303.398C1271.95 303.451 1271.63 303.496 1271.35 303.534C1270.74 303.617 1270.19 303.754 1269.7 303.943C1269.22 304.133 1268.84 304.398 1268.56 304.739C1268.28 305.072 1268.14 305.504 1268.14 306.034C1268.14 306.792 1268.41 307.364 1268.97 307.75C1269.52 308.136 1270.22 308.33 1271.08 308.33ZM1287.48 300.773V311H1283.36V293.545H1287.3V296.511H1287.5C1287.9 295.534 1288.54 294.758 1289.42 294.182C1290.31 293.606 1291.4 293.318 1292.7 293.318C1293.91 293.318 1294.96 293.576 1295.85 294.091C1296.75 294.606 1297.45 295.352 1297.94 296.33C1298.44 297.307 1298.69 298.492 1298.68 299.886V311H1294.57V300.523C1294.57 299.356 1294.27 298.443 1293.66 297.784C1293.06 297.125 1292.23 296.795 1291.17 296.795C1290.45 296.795 1289.81 296.955 1289.25 297.273C1288.7 297.583 1288.26 298.034 1287.94 298.625C1287.63 299.216 1287.48 299.932 1287.48 300.773ZM1302.86 311V293.545H1306.98V311H1302.86ZM1304.93 291.068C1304.28 291.068 1303.72 290.852 1303.25 290.42C1302.78 289.981 1302.55 289.455 1302.55 288.841C1302.55 288.22 1302.78 287.693 1303.25 287.261C1303.72 286.822 1304.28 286.602 1304.93 286.602C1305.59 286.602 1306.15 286.822 1306.61 287.261C1307.08 287.693 1307.32 288.22 1307.32 288.841C1307.32 289.455 1307.08 289.981 1306.61 290.42C1306.15 290.852 1305.59 291.068 1304.93 291.068ZM1315.32 300.773V311H1311.21V293.545H1315.14V296.511H1315.34C1315.75 295.534 1316.39 294.758 1317.26 294.182C1318.15 293.606 1319.25 293.318 1320.55 293.318C1321.75 293.318 1322.8 293.576 1323.7 294.091C1324.6 294.606 1325.29 295.352 1325.79 296.33C1326.29 297.307 1326.53 298.492 1326.53 299.886V311H1322.41V300.523C1322.41 299.356 1322.11 298.443 1321.5 297.784C1320.9 297.125 1320.07 296.795 1319.01 296.795C1318.29 296.795 1317.65 296.955 1317.09 297.273C1316.54 297.583 1316.11 298.034 1315.79 298.625C1315.48 299.216 1315.32 299.932 1315.32 300.773ZM1338.3 317.909C1336.82 317.909 1335.55 317.708 1334.49 317.307C1333.43 316.913 1332.58 316.383 1331.93 315.716C1331.29 315.049 1330.84 314.311 1330.59 313.5L1334.3 312.602C1334.46 312.943 1334.71 313.28 1335.03 313.614C1335.34 313.955 1335.77 314.235 1336.31 314.455C1336.86 314.682 1337.54 314.795 1338.37 314.795C1339.53 314.795 1340.5 314.511 1341.26 313.943C1342.03 313.383 1342.41 312.458 1342.41 311.17V307.864H1342.21C1342 308.288 1341.68 308.723 1341.28 309.17C1340.87 309.617 1340.34 309.992 1339.67 310.295C1339.01 310.598 1338.18 310.75 1337.18 310.75C1335.84 310.75 1334.63 310.436 1333.54 309.807C1332.45 309.17 1331.59 308.223 1330.95 306.966C1330.31 305.701 1329.99 304.117 1329.99 302.216C1329.99 300.299 1330.31 298.682 1330.95 297.364C1331.59 296.038 1332.46 295.034 1333.55 294.352C1334.64 293.663 1335.86 293.318 1337.2 293.318C1338.22 293.318 1339.06 293.492 1339.72 293.841C1340.39 294.182 1340.92 294.595 1341.31 295.08C1341.7 295.557 1342 296.008 1342.21 296.432H1342.43V293.545H1346.49V311.284C1346.49 312.777 1346.14 314.011 1345.42 314.989C1344.71 315.966 1343.74 316.697 1342.5 317.182C1341.27 317.667 1339.87 317.909 1338.3 317.909ZM1338.33 307.523C1339.2 307.523 1339.95 307.311 1340.56 306.886C1341.17 306.462 1341.64 305.852 1341.96 305.057C1342.28 304.261 1342.43 303.307 1342.43 302.193C1342.43 301.095 1342.28 300.133 1341.96 299.307C1341.65 298.481 1341.18 297.841 1340.57 297.386C1339.96 296.924 1339.22 296.693 1338.33 296.693C1337.42 296.693 1336.65 296.932 1336.04 297.409C1335.42 297.886 1334.96 298.542 1334.65 299.375C1334.34 300.201 1334.18 301.14 1334.18 302.193C1334.18 303.261 1334.34 304.197 1334.65 305C1334.97 305.795 1335.43 306.417 1336.05 306.864C1336.67 307.303 1337.43 307.523 1338.33 307.523Z" fill="white"/>
</svg>
